<svg width="605" height="396" viewBox="0 0 605 396" fill="none" xmlns="http://www.w3.org/2000/svg">
<path d="M556.969 266.833C576.839 275.495 592.348 290.299 599.585 304.838C603.204 312.107 604.829 319.468 603.703 326.028C602.561 332.681 598.621 338.292 591.592 341.941C565.958 355.251 538.4 358.243 510.78 356.928C483.218 355.615 455.346 349.989 429.24 345.947C403.009 341.886 378.563 339.424 357.336 344.155C338.961 348.252 322.925 357.757 310.269 376.59C311.915 378.059 313.123 380.05 313.606 382.377C314.801 388.145 311.094 393.791 305.325 394.986C299.557 396.182 293.911 392.474 292.716 386.705C291.521 380.937 295.229 375.291 300.997 374.096C303.021 373.677 305.029 373.864 306.835 374.528C320.086 354.725 337.041 344.58 356.466 340.25C378.503 335.338 403.625 337.933 429.853 341.994C456.207 346.075 483.691 351.634 510.971 352.933C538.195 354.229 564.969 351.258 589.748 338.392C595.719 335.291 598.841 330.714 599.762 325.352C600.698 319.896 599.386 313.413 596.004 306.62C589.241 293.034 574.5 278.838 555.37 270.5L556.17 268.666L556.969 266.833ZM225.637 199.474C282.63 185.68 345.365 181.336 400.426 203.814L399.67 205.667L398.914 207.518C344.975 185.497 283.21 189.655 226.578 203.361C169.976 217.061 118.754 240.236 86.0373 255.97L84.303 252.364C117.086 236.599 168.615 213.275 225.637 199.474ZM272.713 1.03714C302.181 -1.34834 327.423 0.154109 343.249 7.92679L341.487 11.5176C326.714 4.26259 302.44 2.64407 273.035 5.02444C243.741 7.3959 209.737 13.6973 175.78 21.9424C114.316 36.8667 53.2866 58.089 20.9055 73.6797C20.9838 73.9491 21.0566 74.2226 21.1145 74.502C22.3095 80.2704 18.6017 85.9162 12.8332 87.1114C7.06484 88.3063 1.41902 84.5985 0.223857 78.8301C-0.971073 73.0618 2.73692 67.417 8.50511 66.2217C12.619 65.3694 16.669 67.0113 19.0881 70.1153C51.86 54.3248 113.235 33.0132 174.836 18.0557C208.908 9.78263 243.135 3.43161 272.713 1.03714Z" fill="#C4FF00"/>
</svg>
