<svg width="486" height="453" viewBox="0 0 486 453" fill="none" xmlns="http://www.w3.org/2000/svg">
<path d="M328.518 10.666C328.518 16.5571 333.294 21.3327 339.185 21.3327C345.076 21.3327 349.851 16.5571 349.851 10.666C349.851 4.77498 345.076 -0.00065136 339.185 -0.00065136C333.294 -0.00065136 328.518 4.77498 328.518 10.666ZM468.185 101.166L466.596 102.381L468.185 101.166ZM4.18475 312.666L6.1359 312.227L4.18475 312.666ZM179.685 438.166L180.157 436.223L179.685 438.166ZM460.685 353.166L462.326 352.022V352.022L460.685 353.166ZM408.518 312.666C408.518 318.557 413.294 323.333 419.185 323.333C425.076 323.333 429.851 318.557 429.851 312.666C429.851 306.775 425.076 301.999 419.185 301.999C413.294 301.999 408.518 306.775 408.518 312.666ZM339.185 10.666C338.357 12.4869 338.357 12.4869 338.358 12.4871C338.359 12.4874 338.359 12.4877 338.361 12.4883C338.363 12.4894 338.367 12.4912 338.372 12.4935C338.382 12.4983 338.398 12.5055 338.42 12.5153C338.463 12.5349 338.527 12.5645 338.613 12.6039C338.785 12.6829 339.041 12.8014 339.378 12.9584C340.052 13.2724 341.048 13.7404 342.331 14.3541C344.896 15.5815 348.605 17.3913 353.176 19.7162C362.318 24.3668 374.896 31.075 388.635 39.3036C416.178 55.7998 448.145 78.2641 466.596 102.381L468.185 101.166L469.773 99.9508C450.832 75.1928 418.299 52.4071 390.69 35.872C376.854 27.5851 364.192 20.8324 354.989 16.151C350.387 13.8099 346.648 11.9858 344.057 10.746C342.762 10.126 341.753 9.65205 341.067 9.33247C340.724 9.17267 340.462 9.05147 340.284 8.96991C340.196 8.92912 340.128 8.89825 340.083 8.87742C340.06 8.867 340.043 8.8591 340.031 8.85372C340.025 8.85103 340.02 8.84897 340.017 8.84754C340.016 8.84683 340.014 8.84624 340.014 8.84588C340.013 8.84545 340.012 8.84517 339.185 10.666ZM468.185 101.166L466.596 102.381C481.597 121.988 484.412 136.234 479.387 146.839C474.262 157.654 460.589 165.681 440.02 171.697C399.046 183.682 333.467 186.958 265.028 191.377C196.793 195.783 125.815 201.327 74.627 217.999C49.0312 226.335 28.1206 237.532 15.001 252.993C1.78686 268.565 -3.35881 288.268 2.2336 313.105L4.18475 312.666L6.1359 312.227C0.792309 288.495 5.72601 270.105 18.0509 255.581C30.4704 240.945 50.5587 230.044 75.8657 221.802C126.484 205.316 196.928 199.783 265.286 195.369C333.441 190.968 399.626 187.68 441.143 175.537C461.819 169.489 477.074 161.061 483.002 148.551C489.029 135.832 485.023 119.884 469.773 99.9508L468.185 101.166ZM4.18475 312.666L2.2336 313.105C10.8808 351.509 34.71 378.311 66.5575 397.964C98.3512 417.584 138.229 430.143 179.212 440.109L179.685 438.166L180.157 436.223C139.269 426.279 99.8967 413.837 68.6582 394.56C37.4736 375.316 14.4886 349.323 6.1359 312.227L4.18475 312.666ZM179.685 438.166L179.212 440.109C240.24 454.951 327.179 457.225 390.738 443.976C422.448 437.366 448.756 426.811 462.978 411.652C470.146 404.012 474.29 395.149 474.415 385.06C474.539 375.011 470.673 364 462.326 352.022L460.685 353.166L459.044 354.31C467.084 365.846 470.526 376.051 470.415 385.011C470.305 393.93 466.671 401.869 460.061 408.915C446.725 423.129 421.467 433.485 389.921 440.061C326.966 453.184 240.629 450.929 180.157 436.223L179.685 438.166ZM460.685 353.166L462.326 352.022C455.71 342.53 445.186 332.277 436.41 324.456C432.005 320.531 428.008 317.19 425.112 314.831C423.663 313.651 422.489 312.715 421.675 312.074C421.269 311.753 420.952 311.506 420.736 311.338C420.629 311.254 420.546 311.19 420.49 311.147C420.462 311.125 420.44 311.109 420.426 311.097C420.419 311.092 420.413 311.088 420.409 311.085C420.407 311.083 420.406 311.082 420.405 311.081C420.404 311.081 420.404 311.08 420.403 311.08C420.403 311.08 420.403 311.08 419.185 312.666C417.967 314.252 417.967 314.252 417.967 314.252C417.967 314.253 417.967 314.253 417.967 314.253C417.968 314.253 417.969 314.254 417.971 314.255C417.974 314.258 417.979 314.262 417.985 314.267C417.998 314.276 418.018 314.292 418.044 314.312C418.097 314.353 418.176 314.414 418.281 314.496C418.49 314.658 418.799 314.9 419.198 315.215C419.997 315.844 421.155 316.767 422.585 317.932C425.447 320.264 429.397 323.565 433.749 327.442C442.485 335.227 452.711 345.223 459.044 354.31L460.685 353.166Z" fill="#C4FF00"/>
</svg>
