<svg width="427" height="535" viewBox="0 0 427 535" fill="none" xmlns="http://www.w3.org/2000/svg">
<path d="M305.236 10.666C305.236 16.5571 310.012 21.3327 315.903 21.3327C321.794 21.3327 326.569 16.5571 326.569 10.666C326.569 4.77498 321.794 -0.00065136 315.903 -0.00065136C310.012 -0.00065136 305.236 4.77498 305.236 10.666ZM30.4021 357.166L28.4134 357.379L30.4021 357.166ZM15.402 485.666L13.8468 486.923L15.402 485.666ZM305.903 434.166L303.952 434.609L305.903 434.166ZM242.236 389.666C242.236 395.557 247.012 400.333 252.903 400.333C258.794 400.333 263.569 395.557 263.569 389.666C263.569 383.775 258.794 378.999 252.903 378.999C247.012 378.999 242.236 383.775 242.236 389.666ZM315.903 10.666C315.103 12.4994 315.103 12.4993 315.104 12.4995C315.104 12.4998 315.105 12.5001 315.106 12.5007C315.109 12.5018 315.113 12.5035 315.118 12.506C315.13 12.5108 315.147 12.5184 315.17 12.5286C315.216 12.549 315.286 12.58 315.38 12.6214C315.566 12.7044 315.845 12.8293 316.211 12.9952C316.942 13.327 318.019 13.8229 319.395 14.4753C322.147 15.7803 326.094 17.711 330.855 20.208C340.382 25.204 353.154 32.4568 366.153 41.4887C379.161 50.5267 392.339 61.3075 402.719 73.3467C413.109 85.3975 420.585 98.5789 422.42 112.429L424.403 112.166L426.385 111.903C424.41 96.9935 416.417 83.1076 405.749 70.7347C395.071 58.3502 381.6 47.351 368.436 38.2038C355.262 29.0507 342.339 21.7134 332.713 16.6655C327.898 14.1406 323.903 12.1859 321.109 10.861C319.712 10.1985 318.614 9.69327 317.864 9.35277C317.489 9.18252 317.2 9.05343 317.005 8.96644C316.907 8.92295 316.832 8.88998 316.782 8.86765C316.756 8.85648 316.737 8.84797 316.724 8.84214C316.717 8.83922 316.712 8.83698 316.708 8.8354C316.706 8.83461 316.705 8.83393 316.704 8.83354C316.703 8.83302 316.702 8.83268 315.903 10.666ZM4.40256 258.166L2.48452 257.599C-3.47465 277.769 2.22249 293.023 9.68996 308.021C17.1854 323.074 26.3074 337.687 28.4134 357.379L30.4021 357.166L32.3907 356.953C30.1873 336.35 20.5683 320.894 13.2707 306.238C5.94508 291.525 0.79718 277.427 6.3206 258.733L4.40256 258.166ZM30.4021 357.166L28.4134 357.379C31.5228 386.453 18.7318 406.33 9.3722 425.403C4.72739 434.867 0.898618 444.232 0.753243 454.283C0.606567 464.424 4.20435 474.997 13.8468 486.923L15.402 485.666L16.9573 484.409C7.76885 473.044 4.62247 463.354 4.75282 454.341C4.88448 445.238 8.35395 436.557 12.9631 427.165C22.1114 408.523 35.6513 387.442 32.3907 356.953L30.4021 357.166ZM15.402 485.666L13.8468 486.923C30.7754 507.862 59.155 521.421 91.5271 528.483C123.942 535.555 160.619 536.173 194.473 531.001C228.297 525.833 259.502 514.852 280.843 498.554C302.254 482.202 313.893 460.327 307.853 433.723L305.903 434.166L303.952 434.609C309.552 459.27 298.961 479.684 278.415 495.375C257.798 511.12 227.316 521.936 193.869 527.047C160.449 532.153 124.269 531.532 92.3797 524.575C60.4485 517.609 33.0799 504.35 16.9573 484.409L15.402 485.666ZM305.903 434.166L307.853 433.723C303.782 415.795 289.944 404.292 277.462 397.332C271.193 393.837 265.181 391.438 260.74 389.914C258.517 389.15 256.682 388.604 255.396 388.247C254.753 388.068 254.247 387.937 253.899 387.85C253.725 387.806 253.59 387.773 253.497 387.751C253.45 387.74 253.414 387.732 253.389 387.726C253.376 387.723 253.366 387.72 253.359 387.719C253.355 387.718 253.352 387.717 253.35 387.717C253.349 387.716 253.348 387.716 253.347 387.716C253.346 387.716 253.345 387.716 252.903 389.666C252.46 391.616 252.459 391.616 252.459 391.616C252.459 391.616 252.459 391.616 252.459 391.616C252.46 391.616 252.461 391.617 252.463 391.617C252.467 391.618 252.473 391.619 252.482 391.622C252.5 391.626 252.529 391.633 252.568 391.642C252.647 391.661 252.767 391.69 252.926 391.73C253.244 391.809 253.717 391.932 254.326 392.101C255.544 392.439 257.303 392.963 259.441 393.697C263.723 395.167 269.505 397.475 275.514 400.826C287.588 407.558 300.25 418.305 303.952 434.609L305.903 434.166Z" fill="#C4FF00"/>
</svg>
