<svg width="420" height="462" viewBox="0 0 420 462" fill="none" xmlns="http://www.w3.org/2000/svg">
<path d="M212.641 10.666C212.641 16.5571 217.416 21.3327 223.307 21.3327C229.199 21.3327 233.974 16.5571 233.974 10.666C233.974 4.77498 229.199 -0.00065136 223.307 -0.00065136C217.416 -0.00065136 212.641 4.77498 212.641 10.666ZM260.308 50.166L262.014 49.1222V49.1222L260.308 50.166ZM12.8075 130.666L14.4898 131.748L12.8075 130.666ZM213.808 458.166L213.702 456.169L213.808 458.166ZM398.141 431.166C398.141 437.057 402.917 441.833 408.808 441.833C414.699 441.833 419.474 437.057 419.474 431.166C419.474 425.275 414.699 420.499 408.808 420.499C402.917 420.499 398.141 425.275 398.141 431.166ZM223.307 10.666C222.033 12.2074 222.033 12.2074 222.033 12.2074C222.033 12.2075 222.033 12.2077 222.034 12.2079C222.034 12.2084 222.035 12.2092 222.037 12.2103C222.039 12.2126 222.044 12.2162 222.049 12.221C222.061 12.2307 222.079 12.2455 222.103 12.2654C222.151 12.3052 222.223 12.3651 222.317 12.4444C222.507 12.6031 222.787 12.8394 223.149 13.1473C223.873 13.763 224.922 14.6647 226.216 15.8038C228.805 18.0827 232.372 21.3081 236.28 25.0918C244.13 32.6932 253.225 42.4227 258.602 51.2098L260.308 50.166L262.014 49.1222C256.359 39.88 246.954 29.8595 239.062 22.2182C235.099 18.3806 231.484 15.1115 228.859 12.8012C227.546 11.6457 226.48 10.7292 225.741 10.1003C225.371 9.78588 225.083 9.5433 224.886 9.37866C224.788 9.29634 224.713 9.2335 224.662 9.19091C224.636 9.16961 224.617 9.15338 224.603 9.14229C224.597 9.13675 224.591 9.1325 224.588 9.12955C224.586 9.12807 224.585 9.12692 224.584 9.1261C224.583 9.12569 224.583 9.12532 224.582 9.12511C224.582 9.12482 224.582 9.12461 223.307 10.666ZM260.308 50.166L258.602 51.2098C265.163 61.9351 266.734 69.3416 265.238 74.448C263.779 79.4236 259.154 82.9842 251.168 85.3823C243.221 87.7687 232.475 88.8329 219.744 89.1954C207.04 89.5572 192.531 89.2187 177.107 88.8686C146.33 88.1699 111.948 87.4224 81.8121 92.2374C51.7235 97.0447 25.3399 107.475 11.1252 129.584L12.8075 130.666L14.4898 131.748C27.7582 111.11 52.6842 100.942 82.4432 96.1873C112.155 91.4402 146.158 92.1671 177.016 92.8675C192.409 93.217 207.03 93.5591 219.858 93.1938C232.657 92.8293 243.843 91.7585 252.319 89.2132C260.756 86.6796 267.043 82.5118 269.076 75.573C271.071 68.7652 268.713 60.0717 262.014 49.1222L260.308 50.166ZM12.8075 130.666L11.1252 129.584C0.214992 146.554 -2.43859 160.47 2.14712 171.889C6.69446 183.213 18.0986 191.38 33.5814 197.552C64.5632 209.9 113.839 214.998 165.353 219.904C217.056 224.828 271.161 229.566 312.358 241.06C332.954 246.806 350.125 254.191 362.115 263.984C374.033 273.719 380.807 285.801 380.808 301.166H382.808H384.808C384.807 284.406 377.331 271.248 364.645 260.886C352.031 250.583 334.246 243.014 313.433 237.207C271.812 225.595 217.283 220.832 165.732 215.922C113.991 210.994 65.3894 205.924 35.0624 193.836C19.8908 187.789 9.78278 180.17 5.85902 170.399C1.97363 160.723 3.89003 148.234 14.4898 131.748L12.8075 130.666ZM382.808 301.166H380.808C380.808 316.802 376.213 328.654 368.194 337.678C360.139 346.743 348.483 353.116 334.095 357.479C305.259 366.221 266.121 366.699 225.067 365.23C184.172 363.766 141.378 360.367 105.781 361.534C87.9608 362.118 71.7994 363.847 58.4573 367.579C45.1298 371.306 34.3947 377.094 27.7104 385.962L29.3075 387.166L30.9046 388.37C36.8453 380.488 46.6259 375.041 59.5347 371.431C72.4289 367.825 88.2247 366.112 105.912 365.532C141.331 364.371 183.756 367.754 224.924 369.227C265.932 370.695 305.7 370.267 335.255 361.307C350.062 356.817 362.472 350.14 371.184 340.335C379.933 330.49 384.808 317.655 384.808 301.166H382.808ZM29.3075 387.166L27.7104 385.962C21.2635 394.515 17.8709 402.33 17.2737 409.469C16.6711 416.673 18.9333 422.987 23.3895 428.42C32.1622 439.115 49.4603 446.431 70.4382 451.407C112.582 461.406 171.559 462.394 213.913 460.163L213.808 458.166L213.702 456.169C171.47 458.393 112.946 457.381 71.3616 447.515C50.4754 442.56 34.3521 435.478 26.4822 425.883C22.6171 421.171 20.7525 415.867 21.2598 409.803C21.7725 403.673 24.7264 396.567 30.9046 388.37L29.3075 387.166ZM213.808 458.166L213.913 460.163C239.852 458.797 288.704 452.03 330.975 445.624C352.131 442.417 371.672 439.296 385.923 436.976C393.049 435.816 398.853 434.857 402.875 434.187C404.887 433.853 406.453 433.59 407.516 433.412C408.048 433.322 408.454 433.254 408.728 433.208C408.864 433.185 408.968 433.167 409.037 433.156C409.072 433.15 409.098 433.145 409.115 433.142C409.124 433.141 409.13 433.14 409.135 433.139C409.137 433.139 409.139 433.138 409.14 433.138C409.141 433.138 409.142 433.138 408.808 431.166C408.474 429.194 408.473 429.194 408.472 429.194C408.471 429.195 408.469 429.195 408.467 429.195C408.463 429.196 408.456 429.197 408.448 429.198C408.431 429.201 408.405 429.206 408.37 429.212C408.301 429.223 408.198 429.241 408.062 429.264C407.79 429.31 407.385 429.378 406.854 429.467C405.792 429.645 404.228 429.907 402.219 430.242C398.2 430.911 392.401 431.869 385.28 433.028C371.039 435.346 351.513 438.465 330.375 441.669C288.058 448.082 239.409 454.815 213.702 456.169L213.808 458.166Z" fill="#C4FF00"/>
</svg>
