<svg width="473" height="453" viewBox="0 0 473 453" fill="none" xmlns="http://www.w3.org/2000/svg">
<path d="M326.285 10.666C326.285 16.5571 331.06 21.3327 336.951 21.3327C342.842 21.3327 347.618 16.5571 347.618 10.666C347.618 4.77498 342.842 -0.00065136 336.951 -0.00065136C331.06 -0.00065136 326.285 4.77498 326.285 10.666ZM177.451 438.166L177.924 436.223L177.451 438.166ZM458.451 353.166L460.092 352.022V352.022L458.451 353.166ZM406.285 312.666C406.285 318.557 411.06 323.333 416.951 323.333C422.842 323.333 427.618 318.557 427.618 312.666C427.618 306.775 422.842 301.999 416.951 301.999C411.06 301.999 406.285 306.775 406.285 312.666ZM336.951 10.666C336.124 12.4869 336.124 12.4869 336.124 12.4871C336.125 12.4874 336.126 12.4877 336.127 12.4883C336.129 12.4894 336.133 12.4912 336.138 12.4935C336.149 12.4983 336.165 12.5055 336.186 12.5153C336.229 12.5349 336.294 12.5645 336.379 12.6039C336.551 12.6829 336.808 12.8014 337.145 12.9584C337.819 13.2724 338.815 13.7404 340.097 14.3541C342.662 15.5815 346.372 17.3913 350.942 19.7162C360.084 24.3668 372.662 31.075 386.401 39.3036C413.945 55.7998 445.911 78.2641 464.363 102.381L465.951 101.166L467.54 99.9508C448.598 75.1928 416.065 52.4071 388.457 35.872C374.62 27.5851 361.959 20.8324 352.756 16.151C348.154 13.8099 344.415 11.9858 341.824 10.746C340.528 10.126 339.52 9.65205 338.834 9.33247C338.491 9.17267 338.228 9.05147 338.051 8.96991C337.962 8.92912 337.895 8.89825 337.849 8.87742C337.826 8.867 337.809 8.8591 337.797 8.85372C337.791 8.85103 337.787 8.84897 337.784 8.84754C337.782 8.84683 337.781 8.84624 337.78 8.84588C337.779 8.84545 337.779 8.84517 336.951 10.666ZM1.95117 312.666L2.09808e-05 313.105C8.64723 351.509 32.4764 378.311 64.324 397.964C96.1176 417.584 135.995 430.143 176.979 440.109L177.451 438.166L177.924 436.223C137.035 426.279 97.6631 413.837 66.4246 394.56C35.24 375.316 12.255 349.323 3.90232 312.227L1.95117 312.666ZM177.451 438.166L176.979 440.109C238.006 454.951 324.946 457.225 388.504 443.976C420.214 437.366 446.522 426.811 460.744 411.652C467.913 404.012 472.056 395.149 472.181 385.06C472.305 375.011 468.44 364 460.092 352.022L458.451 353.166L456.81 354.31C464.851 365.846 468.292 376.051 468.181 385.011C468.071 393.93 464.438 401.869 457.827 408.915C444.492 423.129 419.234 433.485 387.688 440.061C324.733 453.184 238.396 450.929 177.924 436.223L177.451 438.166ZM458.451 353.166L460.092 352.022C453.477 342.53 442.953 332.277 434.176 324.456C429.771 320.531 425.774 317.19 422.878 314.831C421.429 313.651 420.255 312.715 419.442 312.074C419.035 311.753 418.719 311.506 418.503 311.338C418.395 311.254 418.312 311.19 418.256 311.147C418.228 311.125 418.207 311.109 418.192 311.097C418.185 311.092 418.179 311.088 418.176 311.085C418.174 311.083 418.172 311.082 418.171 311.081C418.171 311.081 418.17 311.08 418.17 311.08C418.169 311.08 418.169 311.08 416.951 312.666C415.733 314.252 415.733 314.252 415.733 314.252C415.733 314.253 415.734 314.253 415.734 314.253C415.735 314.253 415.736 314.254 415.737 314.255C415.74 314.258 415.745 314.262 415.752 314.267C415.765 314.276 415.784 314.292 415.811 314.312C415.863 314.353 415.943 314.414 416.047 314.496C416.256 314.658 416.565 314.9 416.965 315.215C417.763 315.844 418.921 316.767 420.352 317.932C423.213 320.264 427.164 323.565 431.515 327.442C440.251 335.227 450.478 345.223 456.81 354.31L458.451 353.166Z" fill="#C4FF00"/>
</svg>
