


<svg width="420" height="462" viewBox="0 0 420 462" fill="none" xmlns="http://www.w3.org/2000/svg">

<g transform="translate(11 0)">

<path d="M201.515 10.666C201.515 16.5571 206.291 21.3327 212.182 21.3327C218.073 21.3327 222.848 16.5571 222.848 10.666C222.848 4.77498 218.073 -0.00065136 212.182 -0.00065136C206.291 -0.00065136 201.515 4.77498 201.515 10.666ZM249.182 50.166L250.888 49.1222V49.1222L249.182 50.166ZM212.182 10.666C210.907 12.2074 210.907 12.2074 210.907 12.2074C210.907 12.2075 210.908 12.2077 210.908 12.2079C210.908 12.2084 210.909 12.2092 210.911 12.2103C210.913 12.2126 210.918 12.2162 210.924 12.221C210.935 12.2307 210.953 12.2455 210.977 12.2654C211.025 12.3052 211.097 12.3651 211.191 12.4444C211.381 12.6031 211.661 12.8394 212.023 13.1473C212.747 13.763 213.796 14.6647 215.09 15.8038C217.679 18.0827 221.246 21.3081 225.154 25.0918C233.004 32.6932 242.099 42.4227 247.476 51.2098L249.182 50.166L250.888 49.1222C245.233 39.88 235.828 29.8595 227.936 22.2182C223.973 18.3806 220.358 15.1115 217.733 12.8012C216.42 11.6457 215.354 10.7292 214.615 10.1003C214.245 9.78588 213.957 9.5433 213.761 9.37866C213.662 9.29634 213.587 9.2335 213.536 9.19091C213.51 9.16961 213.491 9.15338 213.477 9.14229C213.471 9.13675 213.466 9.1325 213.462 9.12955C213.46 9.12807 213.459 9.12692 213.458 9.1261C213.457 9.12569 213.457 9.12532 213.457 9.12511C213.456 9.12482 213.456 9.12461 212.182 10.666ZM249.182 50.166L247.476 51.2098C254.038 61.9351 255.608 69.3416 254.112 74.448C252.654 79.4236 248.028 82.9842 240.042 85.3823C232.096 87.7687 221.349 88.8329 208.618 89.1954C195.914 89.5572 181.405 89.2187 165.981 88.8686C135.204 88.1699 100.822 87.4224 70.6862 92.2374C40.5976 97.0447 14.214 107.475 -0.000661969 129.584L1.68164 130.666L3.36394 131.748C16.6324 111.11 41.5584 100.942 71.3173 96.1873C101.029 91.4402 135.033 92.1671 165.89 92.8675C181.283 93.217 195.904 93.5591 208.732 93.1938C221.532 92.8293 232.717 91.7585 241.193 89.2132C249.63 86.6796 255.917 82.5118 257.95 75.573C259.945 68.7652 257.587 60.0717 250.888 49.1222L249.182 50.166ZM371.682 301.166H369.682C369.682 316.802 365.087 328.654 357.069 337.678C349.013 346.743 337.357 353.116 322.969 357.479C294.133 366.221 254.995 366.699 213.941 365.23C173.046 363.766 130.252 360.367 94.6553 361.534C76.8349 362.118 60.6736 363.847 47.3315 367.579C34.0039 371.306 23.2689 377.094 16.5845 385.962L18.1816 387.166L19.7788 388.37C25.7194 380.488 35.5 375.041 48.4089 371.431C61.3031 367.825 77.0988 366.112 94.7863 365.532C130.205 364.371 172.63 367.754 213.798 369.227C254.806 370.695 294.574 370.267 324.129 361.307C338.936 356.817 351.346 350.14 360.059 340.335C368.807 330.49 373.682 317.655 373.682 301.166H371.682ZM18.1816 387.166L16.5845 385.962C10.1377 394.515 6.74507 402.33 6.14789 409.469C5.54529 416.673 7.80741 422.987 12.2637 428.42C21.0364 439.115 38.3344 446.431 59.3124 451.407C101.456 461.406 160.433 462.394 202.787 460.163L202.682 458.166L202.577 456.169C160.344 458.393 101.82 457.381 60.2357 447.515C39.3495 442.56 23.2263 435.478 15.3563 425.883C11.4913 421.171 9.62667 415.867 10.134 409.803C10.6467 403.673 13.6006 396.567 19.7788 388.37L18.1816 387.166Z" fill="#C4FF00"/>

</g>

</svg>