<svg width="347" height="408" viewBox="0 0 347 408" fill="none" xmlns="http://www.w3.org/2000/svg">
<path d="M319.771 7.03627C317.764 12.5749 320.627 18.6918 326.166 20.6986C331.704 22.7055 337.821 19.8424 339.828 14.3037C341.835 8.765 338.972 2.64816 333.433 0.641318C327.894 -1.36552 321.777 1.4976 319.771 7.03627ZM336.772 132.276L338.578 133.135L336.772 132.276ZM105.173 126.284L106.796 127.453L105.173 126.284ZM285.543 340.236L283.552 340.044L285.543 340.236ZM114.669 396.854L115.193 394.924L114.669 396.854ZM28.9722 289.641L27.426 288.372V288.372L28.9722 289.641ZM0.640684 249.72C-1.36616 255.259 1.49697 261.375 7.03564 263.382C12.5743 265.389 18.6912 262.526 20.698 256.987C22.7048 251.449 19.8417 245.332 14.303 243.325C8.76437 241.318 2.64753 244.181 0.640684 249.72ZM329.799 10.67C327.911 11.328 327.911 11.3279 327.911 11.3282C327.911 11.3286 327.911 11.3292 327.911 11.3301C327.912 11.332 327.913 11.3351 327.915 11.3394C327.917 11.3479 327.922 11.3612 327.928 11.3792C327.941 11.4151 327.959 11.4698 327.984 11.5428C328.034 11.6887 328.108 11.9079 328.205 12.1968C328.398 12.7745 328.679 13.6311 329.031 14.7385C329.734 16.9535 330.718 20.1712 331.836 24.1687C334.072 32.1666 336.842 43.2712 338.976 55.7024C343.266 80.699 344.891 110.547 334.966 131.417L336.772 132.276L338.578 133.135C349.082 111.048 347.221 80.093 342.918 55.0257C340.755 42.4251 337.951 31.1827 335.688 23.0914C334.556 19.0443 333.559 15.782 332.843 13.5281C332.485 12.4011 332.198 11.526 331.999 10.9307C331.9 10.633 331.823 10.4053 331.77 10.251C331.744 10.1739 331.724 10.1151 331.71 10.0751C331.703 10.0551 331.698 10.0398 331.694 10.0293C331.692 10.024 331.691 10.0199 331.69 10.017C331.689 10.0156 331.689 10.0143 331.688 10.0136C331.688 10.0126 331.688 10.0119 329.799 10.67ZM336.772 132.276L334.966 131.417C330.273 141.284 324.144 147.324 316.989 150.653C309.798 153.999 301.354 154.707 291.881 153.503C272.84 151.082 250.364 141.054 227.055 130.569C203.918 120.16 180.003 109.325 158.536 105.769C147.768 103.986 137.478 104.006 128.124 106.907C118.73 109.821 110.405 115.602 103.55 125.115L105.173 126.284L106.796 127.453C113.164 118.615 120.779 113.373 129.309 110.728C137.878 108.07 147.495 107.995 157.882 109.716C178.727 113.168 202.121 123.738 225.414 134.217C248.537 144.618 271.615 154.959 291.377 157.471C301.306 158.733 310.576 158.049 318.677 154.28C326.814 150.494 333.556 143.695 338.578 133.135L336.772 132.276ZM105.173 126.284L103.55 125.115C95.5901 136.162 92.527 146.571 93.5131 156.5C94.4955 166.392 99.468 175.506 106.991 184.051C121.97 201.064 147.629 216.431 174.544 231.858C201.613 247.372 230.06 263 251.215 280.621C272.387 298.257 285.736 317.463 283.552 340.044L285.543 340.236L287.534 340.429C289.914 315.819 275.251 295.437 253.775 277.548C232.282 259.645 203.446 243.812 176.533 228.387C149.469 212.876 124.45 197.827 109.994 181.408C102.799 173.236 98.365 164.88 97.4935 156.104C96.6256 147.366 99.2615 137.909 106.796 127.453L105.173 126.284ZM285.543 340.236L283.552 340.044C281.909 357.041 274.854 370.018 264.185 379.711C253.478 389.439 239.039 395.936 222.56 399.741C189.578 407.357 148.898 404.073 115.193 394.924L114.669 396.854L114.146 398.784C148.284 408.051 189.658 411.443 223.46 403.639C240.373 399.734 255.51 392.997 266.875 382.672C278.279 372.312 285.794 358.417 287.534 340.429L285.543 340.236ZM114.669 396.854L115.193 394.924C89.9849 388.082 60.9012 371.199 42.1344 351.275C32.7524 341.315 26.0803 330.733 23.6462 320.409C21.2352 310.182 22.9537 300.129 30.5183 290.91L28.9722 289.641L27.426 288.372C19.0184 298.62 17.0752 309.968 19.753 321.327C22.4078 332.588 29.575 343.775 39.2227 354.018C58.5153 374.5 88.2526 391.756 114.146 398.784L114.669 396.854ZM28.9722 289.641L30.5183 290.91C34.8017 285.689 35.7943 280.409 34.6665 275.476C33.5673 270.667 30.5075 266.41 27.122 262.945C23.7156 259.458 19.8285 256.62 16.821 254.664C15.3115 253.682 14.0102 252.914 13.0823 252.389C12.6181 252.127 12.2467 251.925 11.9885 251.787C11.8594 251.718 11.7585 251.665 11.6885 251.629C11.6535 251.611 11.6261 251.597 11.6069 251.587C11.5972 251.582 11.5896 251.578 11.584 251.575C11.5812 251.574 11.5789 251.572 11.5771 251.572C11.5762 251.571 11.5753 251.571 11.5748 251.57C11.574 251.57 11.5733 251.57 10.6693 253.354C9.76534 255.138 9.76492 255.137 9.76463 255.137C9.7647 255.137 9.76454 255.137 9.76468 255.137C9.76497 255.137 9.76577 255.138 9.76708 255.139C9.76969 255.14 9.77432 255.142 9.78094 255.146C9.79417 255.152 9.81532 255.163 9.84407 255.178C9.90159 255.208 9.98951 255.254 10.1053 255.316C10.3369 255.44 10.6797 255.626 11.1134 255.871C11.9815 256.362 13.2109 257.087 14.6403 258.017C17.5106 259.884 21.1346 262.54 24.2608 265.74C27.4079 268.961 29.9022 272.583 30.7671 276.367C31.6035 280.026 30.9702 284.053 27.426 288.372L28.9722 289.641Z" fill="#C4FF00"/>
</svg>
