<svg width="605" height="396" viewBox="0 0 605 396" fill="none" xmlns="http://www.w3.org/2000/svg">
<path d="M225.637 199.473C282.63 185.679 345.365 181.336 400.426 203.815H400.425L556.917 266.812L556.968 266.833C576.838 275.495 592.348 290.299 599.585 304.837C603.204 312.106 604.829 319.468 603.703 326.028C602.561 332.681 598.62 338.292 591.591 341.941C565.958 355.251 538.4 358.243 510.781 356.928C483.218 355.615 455.345 349.988 429.239 345.946C403.008 341.885 378.563 339.423 357.336 344.154C336.266 348.851 318.272 360.661 304.922 385.488L303.16 384.542L301.4 383.594C315.305 357.734 334.272 345.197 356.466 340.25C378.503 335.338 403.624 337.933 429.852 341.994C456.207 346.075 483.69 351.634 510.971 352.933C538.194 354.229 564.968 351.258 589.747 338.392C595.718 335.291 598.839 330.714 599.76 325.352C600.697 319.896 599.386 313.413 596.004 306.62C589.244 293.039 574.512 278.85 555.394 270.51L398.923 207.522L398.913 207.519C344.974 185.498 283.209 189.654 226.577 203.36C169.975 217.06 118.753 240.235 86.0364 255.969C77.7158 259.97 70.6793 262.069 64.9114 262.582C59.1454 263.095 54.4904 262.034 51.1663 259.52C44.3699 254.38 44.4359 244.464 48.9797 234.64C58.2242 214.653 87.2458 191.165 132.669 191.165L132.67 193.165L132.669 195.166C88.5933 195.166 61.1152 217.93 52.6096 236.318C48.2791 245.681 49.1565 252.984 53.5784 256.329C55.8635 258.057 59.4201 259.055 64.5559 258.598C69.6902 258.141 76.2487 256.238 84.303 252.364C117.086 236.599 168.615 213.274 225.637 199.473ZM272.712 1.03717C302.18 -1.34833 327.423 0.154062 343.249 7.92681C351.062 11.7639 356.544 15.995 359.862 20.6378C363.223 25.3423 364.296 30.3814 363.419 35.5723C362.555 40.6882 359.824 45.8219 355.835 50.8897C351.837 55.9693 346.485 61.0952 340.209 66.2042C315.179 86.5799 274.445 107.453 242.504 124.583L241.56 122.82L240.614 121.059C272.765 103.817 313.034 83.1684 337.685 63.1016C343.829 58.1002 348.939 53.1824 352.692 48.4151C356.454 43.6358 358.763 39.117 359.474 34.9063C360.172 30.771 359.354 26.8079 356.608 22.9639C353.817 19.0582 348.972 15.1932 341.486 11.5167C326.713 4.26179 302.44 2.64319 273.035 5.02349C243.741 7.39495 209.736 13.6973 175.78 21.9424C114.315 36.8668 53.2856 58.0881 20.9045 73.6788C20.9829 73.9483 21.0566 74.2225 21.1145 74.502C22.3093 80.2703 18.6015 85.9152 12.8332 87.1104C7.06486 88.3055 1.41922 84.5984 0.223875 78.8301C-0.971082 73.0617 2.73671 67.4169 8.50512 66.2217C12.619 65.3694 16.6681 67.0114 19.0872 70.1153C51.859 54.3248 113.235 33.0123 174.836 18.0547C208.908 9.78177 243.134 3.43165 272.712 1.03717Z" fill="#C4FF00"/>
</svg>
