<svg width="346" height="408" viewBox="0 0 346 408" fill="none" xmlns="http://www.w3.org/2000/svg">
<path d="M319.27 7.03608C317.264 12.5748 320.127 18.6916 325.665 20.6984C331.204 22.7053 337.321 19.8422 339.328 14.3035C341.335 8.76481 338.471 2.64796 332.933 0.641124C327.394 -1.36571 321.277 1.4974 319.27 7.03608ZM336.272 132.276L338.078 133.135L336.272 132.276ZM114.169 396.854L114.693 394.924L114.169 396.854ZM28.472 289.641L26.9258 288.372V288.372L28.472 289.641ZM0.640537 249.721C-1.36631 255.26 1.49682 261.377 7.0355 263.384C12.5742 265.391 18.691 262.528 20.6979 256.989C22.7047 251.45 19.8416 245.333 14.3029 243.327C8.76422 241.32 2.64738 244.183 0.640537 249.721ZM329.299 10.6698C327.41 11.3278 327.41 11.3277 327.41 11.328C327.411 11.3285 327.411 11.329 327.411 11.3299C327.412 11.3318 327.413 11.3349 327.414 11.3392C327.417 11.3477 327.422 11.361 327.428 11.379C327.44 11.4149 327.459 11.4696 327.484 11.5426C327.534 11.6885 327.608 11.9077 327.705 12.1966C327.897 12.7744 328.179 13.6309 328.53 14.7383C329.234 16.9533 330.217 20.1711 331.335 24.1685C333.572 32.1664 336.341 43.271 338.475 55.7022C342.766 80.6988 344.391 110.547 334.465 131.417L336.272 132.276L338.078 133.135C348.582 111.048 346.721 80.0928 342.418 55.0255C340.255 42.4249 337.45 31.1825 335.188 23.0912C334.056 19.0442 333.058 15.7818 332.343 13.5279C331.985 12.4009 331.698 11.5258 331.499 10.9305C331.4 10.6328 331.323 10.4051 331.27 10.2508C331.244 10.1737 331.223 10.1149 331.21 10.0749C331.203 10.0549 331.197 10.0396 331.194 10.0291C331.192 10.0238 331.19 10.0197 331.189 10.0168C331.189 10.0154 331.189 10.0141 331.188 10.0134C331.188 10.0124 331.188 10.0117 329.299 10.6698ZM336.272 132.276L334.465 131.417C329.773 141.284 323.644 147.324 316.489 150.653C309.297 153.999 300.854 154.707 291.381 153.503C272.339 151.082 249.863 141.054 226.555 130.569C203.417 120.16 179.503 109.325 158.036 105.769C147.268 103.985 136.978 104.006 127.624 106.907C118.23 109.82 109.905 115.602 103.05 125.115L104.673 126.284L106.295 127.453C112.664 118.615 120.279 113.373 128.809 110.727C137.377 108.07 146.995 107.995 157.382 109.715C178.227 113.168 201.621 123.738 224.914 134.217C248.037 144.618 271.115 154.958 290.876 157.471C300.805 158.733 310.076 158.049 318.177 154.28C326.314 150.493 333.056 143.694 338.078 133.135L336.272 132.276ZM285.043 340.236L283.052 340.043C281.409 357.041 274.354 370.018 263.685 379.711C252.978 389.439 238.539 395.936 222.06 399.741C189.078 407.356 148.398 404.072 114.693 394.924L114.169 396.854L113.645 398.784C147.784 408.05 189.158 411.443 222.96 403.639C239.873 399.733 255.009 392.997 266.375 382.672C277.778 372.312 285.294 358.417 287.034 340.428L285.043 340.236ZM114.169 396.854L114.693 394.924C89.4847 388.082 60.401 371.199 41.6342 351.275C32.2522 341.315 25.5801 330.733 23.1461 320.409C20.735 310.182 22.4535 300.129 30.0181 290.909L28.472 289.641L26.9258 288.372C18.5182 298.619 16.575 309.968 19.2528 321.327C21.9076 332.587 29.0749 343.775 38.7225 354.018C58.0151 374.499 87.7524 391.756 113.645 398.784L114.169 396.854ZM28.472 289.641L30.0181 290.909C34.2961 285.695 35.3219 280.425 34.249 275.496C33.2023 270.688 30.2093 266.428 26.8852 262.959C23.5414 259.47 19.7163 256.63 16.755 254.673C15.2686 253.691 13.9865 252.922 13.0721 252.397C12.6146 252.135 12.2484 251.932 11.9937 251.795C11.8664 251.726 11.7668 251.673 11.6977 251.636C11.6631 251.618 11.6362 251.604 11.6171 251.594C11.6075 251.589 11.6 251.585 11.5944 251.582C11.5916 251.581 11.5893 251.579 11.5876 251.579C11.5867 251.578 11.5858 251.578 11.5853 251.577C11.5845 251.577 11.5838 251.577 10.6692 253.355C9.75457 255.134 9.75414 255.134 9.75384 255.133C9.75391 255.133 9.75373 255.133 9.75386 255.133C9.75413 255.134 9.7549 255.134 9.75617 255.135C9.75871 255.136 9.76323 255.138 9.76972 255.142C9.78267 255.148 9.80343 255.159 9.83168 255.174C9.8882 255.204 9.97464 255.25 10.0885 255.312C10.3163 255.435 10.6536 255.621 11.0804 255.866C11.9346 256.357 13.144 257.081 14.5497 258.01C17.3726 259.876 20.9335 262.53 23.9972 265.727C27.0807 268.944 29.5169 272.563 30.3405 276.347C31.138 280.01 30.4754 284.046 26.9258 288.372L28.472 289.641Z" fill="#C4FF00"/>
</svg>
