<svg width="63" height="63" viewBox="0 0 63 63" fill="none" xmlns="http://www.w3.org/2000/svg">
<path d="M44.1193 50.3404C44.5783 50.9331 45.0045 51.3611 45.3979 51.6246C45.7914 51.8551 46.3815 51.9703 47.1683 51.9703C47.9879 51.9703 48.6764 51.7069 49.2338 51.18C49.8239 50.6202 50.1189 49.8958 50.1189 49.0068C50.1189 48.1177 49.8403 47.3768 49.2829 46.7841C48.7584 46.1914 48.0699 45.8951 47.2175 45.8951C46.3651 45.8951 45.6438 46.0926 45.0537 46.4878C44.4964 46.8829 44.1357 47.0805 43.9718 47.0805H34.1855C33.8905 47.0805 33.6282 46.9817 33.3987 46.7841C33.202 46.5536 33.1036 46.2902 33.1036 45.9938V45.7469L35.0707 28.1138C35.2019 26.9943 35.8412 26.4345 36.9886 26.4345H61.2406C61.6012 26.4345 61.9127 26.5662 62.1749 26.8296C62.4372 27.0931 62.5684 27.4059 62.5684 27.7681V34.7324C62.5684 35.0946 62.4372 35.4074 62.1749 35.6709C61.9127 35.9343 61.6012 36.066 61.2406 36.066H44.6111L44.2177 39.5728C45.8569 38.4533 48.1355 37.8935 51.0533 37.8935C54.004 37.8935 56.6923 38.9966 59.1184 41.2028C61.5773 43.3761 62.5684 46.0926 62.5684 49.4513C62.5684 52.777 61.4297 55.6747 58.6758 58.0456C55.9219 60.4164 52.1516 62.0339 47.1683 62.0339C42.185 62.0339 38.2017 60.5481 35.415 58.4407C32.661 56.3004 31.2841 53.6661 31.2841 50.5379C31.2841 50.2416 31.3824 49.9946 31.5791 49.797C31.8086 49.5665 32.0709 49.4513 32.366 49.4513H42.2998C43.0538 49.4513 43.6603 49.7477 44.1193 50.3404Z" fill="#C4FF00"/>
<path d="M56.8358 16.5929H61.4293C61.9093 16.5929 62.2984 16.2038 62.2984 15.7239V0.395911C62.2984 0.305147 62.2248 0.231567 62.134 0.231567H52.3248C52.1534 0.231567 52.0054 0.293896 51.8807 0.418554C51.756 0.543212 51.6937 0.691243 51.6937 0.862647V4.62575C51.6937 4.79716 51.756 4.94519 51.8807 5.06985C52.0054 5.1945 52.1534 5.25683 52.3248 5.25683H55.3357C55.8157 5.25683 56.2048 5.64592 56.2048 6.12588V15.9618C56.2048 16.1332 56.2671 16.2813 56.3918 16.4059C56.5164 16.5306 56.6644 16.5929 56.8358 16.5929Z" fill="#C4FF00"/>
<path d="M35.2469 5.37587C35.2469 3.78648 35.9014 2.49316 37.2103 1.49589C38.5348 0.498631 40.2644 0 42.3992 0C44.5495 0 46.3025 0.522004 47.6582 1.56601C49.0294 2.61002 49.715 3.70078 49.715 4.83828C49.715 4.97852 49.6605 5.10318 49.5514 5.21225C49.4579 5.30575 49.3488 5.35249 49.2242 5.35249H44.5495C44.1911 5.35249 43.8639 5.22004 43.5678 4.95515C43.2718 4.69025 42.8744 4.5578 42.3758 4.5578C41.6278 4.5578 41.2539 4.77595 41.2539 5.21225C41.2539 5.44599 41.4331 5.64076 41.7915 5.79659C42.1654 5.95241 42.851 6.09265 43.8483 6.2173C46.1701 6.51337 47.8218 7.05874 48.8035 7.85344C49.8007 8.63255 50.2993 9.82459 50.2993 11.4296C50.2993 13.0189 49.567 14.3201 48.1023 15.3329C46.6531 16.3302 44.7521 16.8288 42.3992 16.8288C40.0462 16.8288 38.1998 16.3457 36.8597 15.3796C35.5196 14.4136 34.8496 13.2371 34.8496 11.8503C34.8496 11.71 34.8963 11.5932 34.9898 11.4997C35.0989 11.3906 35.2236 11.3361 35.3638 11.3361H39.8047C40.132 11.3361 40.4903 11.4919 40.8799 11.8035C41.285 12.1152 41.8382 12.271 42.5394 12.271C43.7081 12.271 44.2924 12.0528 44.2924 11.6165C44.2924 11.3361 44.082 11.1257 43.6613 10.9855C43.2406 10.8296 42.4459 10.6738 41.2772 10.518C37.257 9.9882 35.2469 8.27416 35.2469 5.37587Z" fill="#C4FF00"/>
<path d="M27.6538 0.231567H32.235C32.4064 0.231567 32.5544 0.293896 32.6791 0.418554C32.8038 0.543212 32.8661 0.691243 32.8661 0.862647V10.2587C32.8661 12.4402 32.1883 14.0842 30.8326 15.1905C29.477 16.2813 27.6305 16.8266 25.2931 16.8266C22.9714 16.8266 21.1249 16.2813 19.7536 15.1905C18.398 14.0997 17.7202 12.4558 17.7202 10.2587V0.862647C17.7202 0.691243 17.7825 0.543212 17.9072 0.418554C18.0318 0.293896 18.1798 0.231567 18.3512 0.231567H22.9324C23.1038 0.231567 23.2519 0.293896 23.3765 0.418554C23.5012 0.543212 23.5635 0.691243 23.5635 0.862647V10.3288C23.5635 11.5287 24.14 12.1286 25.2931 12.1286C26.4462 12.1286 27.0228 11.5287 27.0228 10.3288V0.862647C27.0228 0.691243 27.0851 0.543212 27.2097 0.418554C27.3344 0.293896 27.4824 0.231567 27.6538 0.231567Z" fill="#C4FF00"/>
<path d="M15.029 0.862647V10.4457C15.029 12.5649 14.3201 14.1621 12.9021 15.2372C11.4997 16.2968 9.7233 16.8266 7.57296 16.8266C5.42261 16.8266 3.62287 16.3124 2.17372 15.284C0.724573 14.2556 0 12.861 0 11.1002C0 10.9599 0.0467466 10.8431 0.14024 10.7496C0.249315 10.6405 0.373973 10.586 0.514213 10.586H5.28237C5.53169 10.586 5.71867 10.6483 5.84333 10.7729C5.98357 10.882 6.12381 11.0924 6.26405 11.404C6.40429 11.7001 6.5679 11.9182 6.75489 12.0585C6.95746 12.1987 7.23794 12.2688 7.59633 12.2688C8.51568 12.2688 8.97536 11.6378 8.97536 10.3756V4.97635H2.03348C1.86208 4.97635 1.71404 4.91402 1.58939 4.78937C1.46473 4.66471 1.4024 4.51668 1.4024 4.34527V0.862647C1.4024 0.691243 1.46473 0.543212 1.58939 0.418554C1.71404 0.293896 1.86208 0.231567 2.03348 0.231567H14.398C14.5694 0.231567 14.7174 0.293896 14.8421 0.418554C14.9667 0.543212 15.029 0.691243 15.029 0.862647Z" fill="#C4FF00"/>
<path d="M5.87596 44.6431H1.28249C0.802528 44.6431 0.413443 45.0321 0.413443 45.5121V60.8401C0.413443 60.9308 0.487021 61.0044 0.577786 61.0044H10.387C10.5584 61.0044 10.7064 60.9421 10.8311 60.8174C10.9558 60.6927 11.0181 60.5447 11.0181 60.3733V56.6102C11.0181 56.4388 10.9558 56.2908 10.8311 56.1661C10.7064 56.0415 10.5584 55.9791 10.387 55.9791H7.37608C6.89612 55.9791 6.50704 55.59 6.50704 55.1101V45.2741C6.50704 45.1027 6.44471 44.9547 6.32005 44.8301C6.19539 44.7054 6.04736 44.6431 5.87596 44.6431Z" fill="#C4FF00"/>
</svg>
