<svg width="110" height="110" viewBox="0 0 110 110" fill="none" xmlns="http://www.w3.org/2000/svg">
<path d="M77.5653 89.2647C78.3723 90.3157 79.1216 91.0748 79.8132 91.5419C80.5049 91.9507 81.5424 92.155 82.9257 92.155C84.3666 92.155 85.577 91.6879 86.5569 90.7536C87.5944 89.761 88.1131 88.4764 88.1131 86.8999C88.1131 85.3233 87.6232 84.0095 86.6433 82.9585C85.7211 81.9075 84.5107 81.3819 83.0121 81.3819C81.5136 81.3819 80.2455 81.7323 79.208 82.433C78.2282 83.1337 77.5942 83.484 77.306 83.484H60.101C59.5822 83.484 59.1211 83.3088 58.7177 82.9585C58.3718 82.5498 58.1989 82.0826 58.1989 81.5571V81.1192L61.6572 49.851C61.8878 47.8657 63.0117 46.873 65.029 46.873H107.666C108.3 46.873 108.847 47.1066 109.308 47.5737C109.77 48.0409 110 48.5956 110 49.2379V61.5875C110 62.2298 109.77 62.7845 109.308 63.2516C108.847 63.7188 108.3 63.9523 107.666 63.9523H78.4299L77.7382 70.1709C80.6202 68.1856 84.626 67.193 89.7558 67.193C94.9432 67.193 99.6696 69.1491 103.935 73.0613C108.258 76.9151 110 81.7323 110 87.6881C110 93.5856 107.998 98.724 103.157 102.928C98.3151 107.132 91.6867 110.001 82.9257 110.001C74.1647 110.001 67.1616 107.366 62.2624 103.629C57.4208 99.8334 55 95.1621 55 89.615C55 89.0895 55.1729 88.6516 55.5188 88.3012C55.9222 87.8925 56.3833 87.6881 56.9021 87.6881H74.3664C75.6921 87.6881 76.7584 88.2136 77.5653 89.2647Z" fill="white"/>
<path d="M99.9221 29.4213H108.657C109.136 29.4213 109.526 29.0322 109.526 28.5523V0.697131C109.526 0.537561 109.396 0.408203 109.237 0.408203H91.9913C91.69 0.408203 91.4297 0.518729 91.2106 0.739782C90.9914 0.960835 90.8818 1.22333 90.8818 1.52728V8.2003C90.8818 8.50425 90.9914 8.76675 91.2106 8.9878C91.4297 9.20885 91.69 9.31938 91.9913 9.31938H97.9435C98.4235 9.31938 98.8126 9.70847 98.8126 10.1884V28.3022C98.8126 28.6062 98.9222 28.8687 99.1413 29.0898C99.3605 29.3108 99.6207 29.4213 99.9221 29.4213Z" fill="white"/>
<path d="M61.9666 9.53289C61.9666 6.71447 63.1172 4.42105 65.4184 2.65263C67.7469 0.88421 70.7877 0 74.5408 0C78.3213 0 81.4032 0.925657 83.7865 2.77697C86.1972 4.62828 87.4026 6.56249 87.4026 8.5796C87.4026 8.82828 87.3067 9.04933 87.1149 9.24275C86.9506 9.40854 86.7588 9.49144 86.5397 9.49144H78.3212C77.6912 9.49144 77.1159 9.25657 76.5954 8.78683C76.0749 8.3171 75.3763 8.08223 74.4997 8.08223C73.1847 8.08223 72.5273 8.46907 72.5273 9.24275C72.5273 9.65723 72.8423 10.0026 73.4724 10.2789C74.1299 10.5553 75.3352 10.8039 77.0885 11.025C81.1703 11.55 84.0741 12.5171 85.8 13.9263C87.5533 15.3079 88.4299 17.4217 88.4299 20.2677C88.4299 23.0862 87.1423 25.3934 84.5672 27.1894C82.0195 28.9579 78.6774 29.8421 74.5408 29.8421C70.4042 29.8421 67.1579 28.9855 64.802 27.2723C62.446 25.5592 61.2681 23.473 61.2681 21.0138C61.2681 20.7651 61.3502 20.5579 61.5146 20.3921C61.7064 20.1987 61.9255 20.102 62.1721 20.102H69.9796C70.5549 20.102 71.1849 20.3783 71.8698 20.9309C72.5821 21.4835 73.5546 21.7598 74.7873 21.7598C76.8419 21.7598 77.8692 21.373 77.8692 20.5993C77.8692 20.102 77.4994 19.7289 76.7598 19.4802C76.0201 19.2039 74.623 18.9276 72.5684 18.6513C65.5005 17.7118 61.9666 14.6724 61.9666 9.53289Z" fill="white"/>
<path d="M48.6179 0.408203H56.672C56.9733 0.408203 57.2335 0.518729 57.4527 0.739782C57.6719 0.960835 57.7814 1.22333 57.7814 1.52728V18.1891C57.7814 22.0575 56.5898 24.9727 54.2064 26.9345C51.8231 28.8687 48.5768 29.8358 44.4676 29.8358C40.3858 29.8358 37.1395 28.8687 34.7288 26.9345C32.3455 25.0003 31.1538 22.0852 31.1538 18.1891V1.52728C31.1538 1.22333 31.2634 0.960835 31.4825 0.739782C31.7017 0.518729 31.9619 0.408203 32.2633 0.408203H40.3173C40.6187 0.408203 40.8789 0.518729 41.0981 0.739782C41.3172 0.960835 41.4268 1.22333 41.4268 1.52728V18.3134C41.4268 20.4411 42.4404 21.5049 44.4676 21.5049C46.4948 21.5049 47.5084 20.4411 47.5084 18.3134V1.52728C47.5084 1.22333 47.618 0.960835 47.8372 0.739782C48.0563 0.518729 48.3166 0.408203 48.6179 0.408203Z" fill="white"/>
<path d="M26.4222 1.52728V18.5207C26.4222 22.2786 25.1757 25.1108 22.6828 27.0174C20.2173 28.8963 17.0943 29.8358 13.3138 29.8358C9.53335 29.8358 6.36926 28.924 3.82156 27.1003C1.27385 25.2766 0 22.8036 0 19.6812C0 19.4325 0.082184 19.2253 0.246552 19.0595C0.438315 18.8661 0.657472 18.7694 0.904024 18.7694H9.2868C9.72511 18.7694 10.0538 18.8799 10.273 19.1009C10.5196 19.2944 10.7661 19.6674 11.0127 20.22C11.2592 20.745 11.5469 21.1319 11.8756 21.3806C12.2317 21.6292 12.7248 21.7536 13.3549 21.7536C14.9712 21.7536 15.7793 20.6345 15.7793 18.3963V8.82201H3.57501C3.27366 8.82201 3.01341 8.71148 2.79426 8.49043C2.5751 8.26938 2.46552 8.00688 2.46552 7.70293V1.52728C2.46552 1.22333 2.5751 0.960835 2.79426 0.739782C3.01341 0.518729 3.27366 0.408203 3.57501 0.408203H25.3127C25.614 0.408203 25.8743 0.518729 26.0934 0.739782C26.3126 0.960835 26.4222 1.22333 26.4222 1.52728Z" fill="white"/>
<path d="M10.3304 79.1627H1.59591C1.11595 79.1627 0.726864 79.5517 0.726864 80.0317V107.887C0.726864 108.046 0.856222 108.176 1.01579 108.176H18.2611C18.5625 108.176 18.8227 108.065 19.0419 107.844C19.261 107.623 19.3706 107.361 19.3706 107.057V100.384C19.3706 100.08 19.261 99.8172 19.0419 99.5962C18.8227 99.3751 18.5625 99.2646 18.2611 99.2646H12.3089C11.8289 99.2646 11.4398 98.8755 11.4398 98.3956V80.2817C11.4398 79.9778 11.3303 79.7153 11.1111 79.4942C10.892 79.2732 10.6317 79.1627 10.3304 79.1627Z" fill="white"/>
</svg>
