<svg width="252" height="250" viewBox="0 0 252 250" fill="none" xmlns="http://www.w3.org/2000/svg">
<g filter="url(#filter0_d_424_7058)">
<path d="M175.653 195.853C177.439 198.159 179.097 199.824 180.628 200.849C182.159 201.746 184.454 202.194 187.516 202.194C190.705 202.194 193.383 201.169 195.552 199.12C197.848 196.942 198.996 194.123 198.996 190.664C198.996 187.205 197.911 184.323 195.743 182.017C193.702 179.711 191.024 178.558 187.707 178.558C184.391 178.558 181.584 179.326 179.289 180.864C177.12 182.401 175.717 183.17 175.079 183.17H137.004C135.856 183.17 134.836 182.785 133.943 182.017C133.178 181.12 132.795 180.095 132.795 178.942V177.981L140.448 109.377C140.959 105.022 143.446 102.844 147.91 102.844H242.266C243.669 102.844 244.881 103.356 245.901 104.381C246.922 105.406 247.432 106.623 247.432 108.032V135.128C247.432 136.537 246.922 137.754 245.901 138.779C244.881 139.804 243.669 140.316 242.266 140.316H177.567L176.036 153.96C182.414 149.605 191.279 147.427 202.631 147.427C214.111 147.427 224.57 151.718 234.009 160.302C243.576 168.757 247.432 179.326 247.432 192.394C247.432 205.333 243.002 216.607 232.287 225.831C221.573 235.055 206.904 241.348 187.516 241.348C168.128 241.348 152.63 235.567 141.788 227.368C131.073 219.041 125.716 208.792 125.716 196.622C125.716 195.469 126.099 194.508 126.864 193.739C127.757 192.842 128.777 192.394 129.925 192.394H168.574C171.508 192.394 173.867 193.547 175.653 195.853Z" fill="#080E10"/>
<path d="M225.126 64.5526H245.51C245.99 64.5526 246.379 64.1635 246.379 63.6835V1.53589C246.379 1.18275 246.093 0.896484 245.74 0.896484H207.575C206.909 0.896484 206.333 1.13898 205.848 1.62398C205.363 2.10898 205.12 2.68492 205.12 3.35179V17.9927C205.12 18.6596 205.363 19.2355 205.848 19.7205C206.333 20.2055 206.909 20.448 207.575 20.448H221.802C222.282 20.448 222.671 20.8371 222.671 21.317V62.0972C222.671 62.7641 222.914 63.3401 223.399 63.8251C223.884 64.3101 224.459 64.5526 225.126 64.5526Z" fill="#080E10"/>
<path d="M141.134 20.9156C141.134 14.7318 143.68 9.69998 148.773 5.81999C153.926 1.94 160.655 0 168.961 0C177.327 0 184.147 2.03093 189.421 6.0928C194.756 10.1547 197.424 14.3984 197.424 18.824C197.424 19.3696 197.212 19.8546 196.787 20.279C196.424 20.6428 195.999 20.8246 195.514 20.8246H177.327C175.932 20.8246 174.659 20.3093 173.507 19.2787C172.356 18.2481 170.81 17.7328 168.87 17.7328C165.96 17.7328 164.505 18.5815 164.505 20.279C164.505 21.1884 165.202 21.9462 166.596 22.5524C168.051 23.1587 170.719 23.7043 174.599 24.1893C183.632 25.3412 190.058 27.4631 193.877 30.5549C197.757 33.5862 199.697 38.224 199.697 44.4683C199.697 50.6521 196.848 55.7142 191.149 59.6548C185.511 63.5348 178.115 65.4748 168.961 65.4748C159.806 65.4748 152.622 63.5955 147.408 59.8367C142.195 56.078 139.588 51.5008 139.588 46.1052C139.588 45.5596 139.77 45.1049 140.134 44.7411C140.558 44.3168 141.043 44.1046 141.589 44.1046H158.867C160.14 44.1046 161.534 44.7108 163.05 45.9233C164.626 47.1358 166.778 47.7421 169.506 47.7421C174.053 47.7421 176.327 46.8933 176.327 45.1958C176.327 44.1046 175.508 43.2861 173.871 42.7405C172.234 42.1343 169.142 41.528 164.596 40.9218C148.954 38.8605 141.134 32.1918 141.134 20.9156Z" fill="#080E10"/>
<path d="M111.59 0.896484H129.413C130.08 0.896484 130.656 1.13898 131.141 1.62398C131.626 2.10898 131.869 2.68492 131.869 3.35179V39.9086C131.869 48.396 129.232 54.792 123.957 59.0963C118.683 63.3401 111.499 65.4619 102.405 65.4619C93.372 65.4619 86.1879 63.3401 80.8529 59.0963C75.5786 54.8526 72.9414 48.4567 72.9414 39.9086V3.35179C72.9414 2.68492 73.1839 2.10898 73.6689 1.62398C74.1539 1.13898 74.7298 0.896484 75.3967 0.896484H93.2204C93.8873 0.896484 94.4632 1.13898 94.9482 1.62398C95.4332 2.10898 95.6757 2.68492 95.6757 3.35179V40.1814C95.6757 44.8495 97.9188 47.1835 102.405 47.1835C106.891 47.1835 109.134 44.8495 109.134 40.1814V3.35179C109.134 2.68492 109.377 2.10898 109.862 1.62398C110.347 1.13898 110.923 0.896484 111.59 0.896484Z" fill="#080E10"/>
<path d="M62.4727 3.35179V40.6361C62.4727 48.881 59.7142 55.0951 54.1974 59.2782C48.7411 63.4007 41.8299 65.4619 33.4637 65.4619C25.0974 65.4619 18.0953 63.4613 12.4572 59.4601C6.81905 55.4588 4 50.0329 4 43.1823C4 42.6367 4.18187 42.182 4.54562 41.8182C4.97 41.3939 5.455 41.1817 6.00062 41.1817H24.5518C25.5218 41.1817 26.2493 41.4242 26.7343 41.9092C27.2799 42.3336 27.8256 43.152 28.3712 44.3645C28.9168 45.5164 29.5534 46.3651 30.2809 46.9107C31.069 47.4564 32.1602 47.7292 33.5546 47.7292C37.1315 47.7292 38.9199 45.2739 38.9199 40.3633V19.3567H11.9115C11.2447 19.3567 10.6687 19.1142 10.1837 18.6292C9.69873 18.1442 9.45623 17.5683 9.45623 16.9014V3.35179C9.45623 2.68492 9.69873 2.10898 10.1837 1.62398C10.6687 1.13898 11.2447 0.896484 11.9115 0.896484H60.0173C60.6842 0.896484 61.2602 1.13898 61.7452 1.62398C62.2302 2.10898 62.4727 2.68492 62.4727 3.35179Z" fill="#080E10"/>
<path d="M26.8629 173.69H6.47931C5.99934 173.69 5.61026 174.079 5.61026 174.559V236.706C5.61026 237.059 5.89653 237.346 6.24966 237.346H44.4138C45.0807 237.346 45.6566 237.103 46.1416 236.618C46.6266 236.133 46.8691 235.557 46.8691 234.89V220.249C46.8691 219.583 46.6266 219.007 46.1416 218.522C45.6566 218.037 45.0807 217.794 44.4138 217.794H30.1873C29.7073 217.794 29.3182 217.405 29.3182 216.925V176.145C29.3182 175.478 29.0758 174.902 28.5908 174.417C28.1058 173.932 27.5298 173.69 26.8629 173.69Z" fill="#080E10"/>
</g>
<defs>
<filter id="filter0_d_424_7058" x="0" y="0" width="251.432" height="249.348" filterUnits="userSpaceOnUse" color-interpolation-filters="sRGB">
<feFlood flood-opacity="0" result="BackgroundImageFix"/>
<feColorMatrix in="SourceAlpha" type="matrix" values="0 0 0 0 0 0 0 0 0 0 0 0 0 0 0 0 0 0 127 0" result="hardAlpha"/>
<feOffset dy="4"/>
<feGaussianBlur stdDeviation="2"/>
<feComposite in2="hardAlpha" operator="out"/>
<feColorMatrix type="matrix" values="0 0 0 0 0 0 0 0 0 0 0 0 0 0 0 0 0 0 0.25 0"/>
<feBlend mode="normal" in2="BackgroundImageFix" result="effect1_dropShadow_424_7058"/>
<feBlend mode="normal" in="SourceGraphic" in2="effect1_dropShadow_424_7058" result="shape"/>
</filter>
</defs>
</svg>
