<svg width="1400" height="600" viewBox="0 0 1400 600" fill="none" xmlns="http://www.w3.org/2000/svg">
<path d="M214.59 584.003C214.59 589.894 219.366 594.67 225.257 594.67C231.148 594.67 235.924 589.894 235.924 584.003C235.924 578.112 231.148 573.336 225.257 573.336C219.366 573.336 214.59 578.112 214.59 584.003ZM82.8019 423.662L83.7025 421.876V421.876L82.8019 423.662ZM379.208 80.0082L377.479 79.0027L379.208 80.0082ZM953.856 142.445C953.856 148.336 958.632 153.112 964.523 153.112C970.414 153.112 975.19 148.336 975.19 142.445C975.19 136.554 970.414 131.779 964.523 131.779C958.632 131.779 953.856 136.554 953.856 142.445ZM1322.74 124.963C1322.74 130.854 1327.52 135.63 1333.41 135.63C1339.3 135.63 1344.07 130.854 1344.07 124.963C1344.07 119.072 1339.3 114.296 1333.41 114.296C1327.52 114.296 1322.74 119.072 1322.74 124.963ZM1384.89 193.397L1383.14 194.357V194.357L1384.89 193.397ZM1269.76 588.998C1269.76 594.889 1274.53 599.665 1280.42 599.665C1286.31 599.665 1291.09 594.889 1291.09 588.998C1291.09 583.107 1286.31 578.331 1280.42 578.331C1274.53 578.331 1269.76 583.107 1269.76 588.998ZM225.257 584.003L227.127 584.713C236.074 561.165 238.415 542.42 234.966 526.702C231.506 510.937 222.286 498.507 208.711 487.482C195.177 476.491 177.201 466.806 156.051 456.539C134.811 446.228 110.448 435.365 83.7025 421.876L82.8019 423.662L81.9013 425.447C108.639 438.932 133.26 449.922 154.304 460.137C175.438 470.397 193.045 479.912 206.189 490.587C219.293 501.229 227.849 512.932 231.059 527.559C234.279 542.232 232.185 560.138 223.387 583.293L225.257 584.003ZM82.8019 423.662L83.7025 421.876C58.5564 409.194 25.7153 380.054 11.3103 343.974C4.12694 325.982 1.54703 306.32 6.71837 286.099C11.8898 265.878 24.8612 244.91 49.105 224.391L47.8129 222.864L46.5209 221.338C21.7802 242.277 8.26083 263.924 2.84309 285.108C-2.57481 306.293 0.157516 326.828 7.59546 345.457C22.4331 382.62 56.071 412.421 81.9013 425.447L82.8019 423.662ZM47.8129 222.864L49.105 224.391C97.5764 183.367 163.219 176.107 225.826 164.91C288.137 153.766 347.397 138.683 380.937 81.0137L379.208 80.0082L377.479 79.0027C344.952 134.93 287.498 149.817 225.121 160.973C163.039 172.076 96.0185 179.445 46.5209 221.338L47.8129 222.864ZM379.208 80.0082L380.937 81.0137C389.123 66.9394 408.501 52.2964 434.843 39.5629C461.092 26.8737 493.937 16.2338 528.64 9.98812C598.197 -2.53024 674.493 2.71655 720.269 43.5419L721.6 42.0493L722.931 40.5567C675.736 -1.53437 597.831 -6.5286 527.932 6.05137C492.907 12.3549 459.71 23.0989 433.102 35.9616C406.585 48.7799 386.288 63.8566 377.479 79.0027L379.208 80.0082ZM721.6 42.0493L720.269 43.5419C766.73 84.9785 810.151 121.495 850.783 141.985C891.493 162.514 929.793 167.134 965.604 144.128L964.523 142.445L963.442 140.763C929.276 162.712 892.599 158.592 852.584 138.413C812.492 118.195 769.441 82.0365 722.931 40.5567L721.6 42.0493ZM1333.41 124.963L1331.49 124.397C1329.37 131.574 1331.06 138.25 1334.74 144.426C1338.4 150.547 1344.09 156.314 1350.25 161.842C1353.34 164.616 1356.59 167.362 1359.79 170.079C1363.01 172.803 1366.18 175.497 1369.15 178.2C1375.13 183.631 1380.18 188.954 1383.14 194.357L1384.89 193.397L1386.64 192.437C1383.35 186.417 1377.88 180.722 1371.84 175.238C1368.81 172.484 1365.59 169.747 1362.38 167.028C1359.17 164.302 1355.97 161.594 1352.92 158.865C1346.82 153.386 1341.51 147.952 1338.18 142.376C1334.88 136.855 1333.61 131.338 1335.32 125.529L1333.41 124.963ZM1384.89 193.397L1383.14 194.357C1401.91 228.685 1398.38 267.744 1383.8 308.001C1369.22 348.265 1343.73 389.373 1319.1 427.554C1294.55 465.603 1270.75 500.884 1259.95 529.161C1254.54 543.302 1252.25 556.042 1255.01 566.666C1257.82 577.463 1265.73 585.66 1279.73 590.872L1280.42 588.998L1281.12 587.124C1268.03 582.247 1261.28 574.894 1258.88 565.659C1256.43 556.25 1258.38 544.473 1263.68 530.588C1274.29 502.813 1297.76 468.004 1322.46 429.723C1347.07 391.573 1372.81 350.111 1387.56 309.362C1402.32 268.606 1406.21 228.21 1386.64 192.437L1384.89 193.397Z" fill="#C4FF00"/>
</svg>
