<svg width="1399" height="598" viewBox="0 0 1399 598" fill="none" xmlns="http://www.w3.org/2000/svg">
<path d="M1267.92 586.601C1267.92 592.492 1272.7 597.268 1278.59 597.268C1284.48 597.268 1289.26 592.492 1289.26 586.601C1289.26 580.71 1284.48 575.935 1278.59 575.935C1272.7 575.935 1267.92 580.71 1267.92 586.601ZM1383.06 191L1381.3 191.96C1400.08 226.288 1396.54 265.347 1381.97 305.604C1367.39 345.869 1341.9 386.977 1317.26 425.157C1292.71 463.206 1268.91 498.487 1258.11 526.764C1252.71 540.905 1250.41 553.645 1253.17 564.269C1255.98 575.066 1263.89 583.263 1277.89 588.475L1278.59 586.601L1279.29 584.727C1266.19 579.85 1259.45 572.498 1257.05 563.262C1254.6 553.854 1256.54 542.076 1261.85 528.191C1272.46 500.416 1295.92 465.607 1320.62 427.326C1345.24 389.176 1370.98 347.714 1385.73 306.965C1400.48 266.209 1404.38 225.813 1384.81 190.04L1383.06 191Z" fill="#C4FF00"/>
</svg>
