<svg width="24" height="24" viewBox="0 0 24 24" fill="none" xmlns="http://www.w3.org/2000/svg">
<g clip-path="url(#clip0_2001_44)">
<path d="M22.5 16.8V5.5995L12.915 0V4.3005L16.6695 6.4995C16.818 6.6 16.818 6.7995 16.6695 6.8505L12.222 9.45C12.0735 9.5505 11.9265 9.4995 11.8275 9.45L7.38 6.8505C7.2315 6.7995 7.2315 6.5505 7.38 6.4995L11.136 4.3005V0L1.5 5.5995V16.8L5.157 14.6505V10.2495C5.157 10.0995 5.3535 10.0005 5.4525 10.05L9.9 12.6495C10.0485 12.75 10.098 12.8505 10.098 13.0005V18.1995C10.098 18.3495 9.9 18.45 9.801 18.4005L6.0465 16.2L2.3895 18.3495L11.9745 24L21.561 18.4005L17.904 16.2495L14.151 18.45C14.0025 18.5505 13.854 18.45 13.854 18.2505V13.05C13.854 12.9 13.953 12.75 14.052 12.7005L18.4995 10.0995C18.648 10.0005 18.795 10.0995 18.795 10.3005V14.7L22.5 16.8Z" fill="black"/>
</g>
<defs>
<clipPath id="clip0_2001_44">
<rect width="24" height="24" fill="white"/>
</clipPath>
</defs>
</svg>
