<svg width="341" height="613" viewBox="0 0 341 613" fill="none" xmlns="http://www.w3.org/2000/svg">
<path d="M92.8583 10.666C92.8583 16.5571 97.6339 21.3327 103.525 21.3327C109.416 21.3327 114.192 16.5571 114.192 10.666C114.192 4.77498 109.416 -0.00065136 103.525 -0.00065136C97.6339 -0.00065136 92.8583 4.77498 92.8583 10.666ZM17.0253 117.666L19.015 117.463L17.0253 117.666ZM92.8583 601.666C92.8583 607.557 97.6339 612.333 103.525 612.333C109.416 612.333 114.192 607.557 114.192 601.666C114.192 595.775 109.416 590.999 103.525 590.999C97.6339 590.999 92.8583 595.775 92.8583 601.666ZM103.525 10.666L102.854 8.78208C86.9753 14.4408 63.5843 26.6263 44.8786 44.8718C26.1574 63.1324 11.9527 87.656 15.0356 117.869L17.0253 117.666L19.015 117.463C16.0979 88.876 29.4763 65.4829 47.6716 47.7352C65.8825 29.9724 88.7413 18.0579 104.196 12.55L103.525 10.666ZM17.0253 117.666L15.0356 117.869C16.038 127.692 21.3069 136.202 29.5272 143.638C37.7307 151.06 48.9742 157.509 62.1963 163.258C88.637 174.755 123.462 183.649 158.952 191.803C194.525 199.976 230.758 207.405 260.31 215.985C275.077 220.273 288.086 224.824 298.447 229.858C308.851 234.915 316.351 240.35 320.367 246.287L322.024 245.166L323.681 244.045C319.072 237.232 310.806 231.417 300.195 226.261C289.54 221.083 276.284 216.458 261.425 212.144C231.728 203.521 195.273 196.044 159.847 187.904C124.337 179.746 89.8503 170.921 63.7913 159.59C50.7635 153.925 39.9602 147.683 32.2107 140.672C24.478 133.677 19.8876 126.015 19.015 117.463L17.0253 117.666ZM322.024 245.166L320.367 246.287C328.942 258.961 334.858 270.767 335.875 282.541C336.882 294.191 333.112 306.106 321.65 319.093C310.133 332.141 290.909 346.194 261.181 361.946C231.477 377.685 191.411 395.057 138.327 414.791L139.024 416.666L139.721 418.541C192.887 398.775 233.134 381.334 263.054 365.48C292.952 349.638 312.665 335.316 324.649 321.74C336.686 308.101 340.979 295.142 339.861 282.197C338.753 269.377 332.357 256.871 323.681 244.045L322.024 245.166ZM139.024 416.666L138.327 414.791C85.1052 434.577 49.5335 454.305 27.8163 473.317C6.08926 492.339 -2.02413 510.894 0.419482 528.196C2.84665 545.381 15.605 560.618 33.9679 573.281C52.3777 585.977 76.726 596.305 102.99 603.593L103.525 601.666L104.06 599.739C78.0744 592.528 54.1728 582.356 36.2387 569.988C18.2578 557.589 6.57835 543.201 4.38018 527.636C2.19844 512.188 9.27215 494.868 30.4511 476.327C51.6397 457.777 86.6928 438.255 139.721 418.541L139.024 416.666Z" fill="#C4FF00"/>
</svg>
