<svg width="1174" height="189" viewBox="0 0 1174 189" fill="none" xmlns="http://www.w3.org/2000/svg">
<path d="M0.223784 78.8298C1.41894 84.5984 7.06412 88.3058 12.8326 87.1107C18.6012 85.9155 22.3086 80.2703 21.1135 74.5018C19.9183 68.7333 14.2731 65.0258 8.50461 66.221C2.73608 67.4161 -0.971371 73.0613 0.223784 78.8298ZM342.367 9.7217L343.458 8.04546L343.357 7.97968L343.248 7.92652L342.367 9.7217ZM401.669 64.5234L400.066 65.7194L401.669 64.5234ZM1152.72 66.6875C1153.92 72.456 1159.56 76.1634 1165.33 74.9683C1171.1 73.7732 1174.81 68.128 1173.61 62.3594C1172.42 56.5909 1166.77 52.8835 1161 54.0786C1155.24 55.2737 1151.53 60.9189 1152.72 66.6875ZM10.6686 76.6658L11.6305 78.4193C40.3898 62.6442 107.819 38.4441 175.779 21.9423C209.736 13.6972 243.74 7.39541 273.034 5.02394C302.439 2.64356 326.713 4.26185 341.485 11.5169L342.367 9.7217L343.248 7.92652C327.422 0.153727 302.18 -1.34857 272.712 1.03698C243.133 3.43147 208.907 9.78219 174.835 18.0553C106.738 34.5902 38.9169 58.8899 9.70678 74.9123L10.6686 76.6658ZM342.367 9.7217L341.276 11.3979C353.103 19.0954 381.46 40.779 400.066 65.7194L401.669 64.5234L403.272 63.3275C384.278 37.8679 355.499 15.8825 343.458 8.04546L342.367 9.7217ZM401.669 64.5234L400.066 65.7194C405.861 73.4872 412.293 85.1276 420.298 98.4593C428.252 111.706 437.663 126.443 449.271 140.07C472.515 167.357 504.688 190.311 551.766 188.021L551.669 186.023L551.572 184.026C506.15 186.236 475.073 164.19 452.316 137.477C440.925 124.104 431.648 109.591 423.727 96.4001C415.858 83.2943 409.227 71.3097 403.272 63.3275L401.669 64.5234ZM551.669 186.023L551.766 188.021C598.861 185.73 631.75 155.4 664.414 124.668C697.261 93.764 729.93 62.4043 776.939 56.0052L776.669 54.0234L776.399 52.0417C727.908 58.6426 694.327 91.0329 661.673 121.754C628.838 152.647 596.977 181.817 551.572 184.026L551.669 186.023ZM776.669 54.0234L776.939 56.0052C800.282 52.8275 824.378 59.0742 848.93 70.3108C873.486 81.5486 898.298 97.6801 923.065 114.066C947.776 130.416 972.455 147.028 996.559 159.032C1020.66 171.034 1044.43 178.564 1067.35 176.516L1067.17 174.523L1066.99 172.531C1045.16 174.483 1022.18 167.325 998.342 155.452C974.508 143.582 950.062 127.131 925.273 110.73C900.54 94.3668 875.477 78.0608 850.595 66.6736C825.71 55.2852 800.806 48.7194 776.399 52.0417L776.669 54.0234ZM1067.17 174.523L1067.35 176.516C1112.66 172.466 1137.28 153.662 1150.46 131.03C1163.55 108.547 1165.17 82.5912 1165.17 64.5235L1163.17 64.5235L1161.17 64.5235C1161.17 82.4557 1159.53 107.5 1147 129.017C1134.56 150.385 1111.18 168.581 1066.99 172.531L1067.17 174.523Z" fill="#C4FF00"/>
</svg>
