<svg width="70" height="70" viewBox="0 0 70 70" fill="none" xmlns="http://www.w3.org/2000/svg">
<path d="M34.9998 20.4163C41.1882 20.4163 47.1231 22.8747 51.499 27.2505C55.8748 31.6264 58.3332 37.5613 58.3332 43.7497C58.3332 49.9381 55.8748 55.873 51.499 60.2488C47.1231 64.6247 41.1882 67.083 34.9998 67.083C28.8115 67.083 22.8765 64.6247 18.5007 60.2488C14.1248 55.873 11.6665 49.9381 11.6665 43.7497C11.6665 37.5613 14.1248 31.6264 18.5007 27.2505C22.8765 22.8747 28.8115 20.4163 34.9998 20.4163ZM34.9998 30.6247L31.144 38.4413L22.5165 39.6955L28.7582 45.7767L27.2853 54.3693L34.9998 50.3122L42.7144 54.3663L41.2415 45.7767L47.4832 39.6926L38.8557 38.4384L34.9998 30.6247ZM37.9165 5.83008L52.4998 5.83299V14.583L48.5244 17.9022C45.2263 16.17 41.6241 15.0924 37.9165 14.7288V5.83008ZM32.0832 5.83008V14.7259C28.3766 15.0899 24.7754 16.1674 21.4782 17.8992L17.4998 14.583V5.83299L32.0832 5.83008Z" fill="#C4FF00"/>
</svg>
