<svg width="70" height="70" viewBox="0 0 70 70" fill="none" xmlns="http://www.w3.org/2000/svg">
<path d="M37.9167 5.83398C38.8627 5.83398 39.7995 6.02033 40.6736 6.38237C41.5476 6.74441 42.3418 7.27507 43.0108 7.94404C43.6797 8.61301 44.2104 9.40719 44.5724 10.2812C44.9345 11.1553 45.1208 12.0921 45.1208 13.0382L45.1179 14.584H55.4166C56.1902 14.584 56.9321 14.8913 57.479 15.4383C58.026 15.9852 58.3333 16.7271 58.3333 17.5007L58.3304 27.7061L53.8679 27.709C52.0398 27.7094 50.2803 28.4048 48.9459 29.6543C47.6114 30.9037 46.8019 32.6137 46.6812 34.4377L46.6666 34.9132V35.0882C46.6664 36.9167 47.3614 38.677 48.6109 40.012C49.8604 41.3471 51.5708 42.1571 53.3954 42.2777L53.8708 42.2923L58.3304 42.2894L58.3333 52.5094C58.3333 53.283 58.026 54.0248 57.479 54.5718C56.9321 55.1188 56.1902 55.4261 55.4166 55.4261L45.1179 55.4232V56.9632C45.1372 57.9212 44.9651 58.8735 44.6118 59.7643C44.2585 60.655 43.731 61.4663 43.0603 62.1507C42.3896 62.8351 41.589 63.3788 40.7056 63.7499C39.8221 64.1211 38.8735 64.3123 37.9152 64.3123C36.9569 64.3123 36.0083 64.1211 35.1248 63.7499C34.2414 63.3788 33.4408 62.8351 32.7701 62.1507C32.0993 61.4663 31.5719 60.655 31.2186 59.7643C30.8653 58.8735 30.6932 57.9212 30.7125 56.9632V55.4232H20.4167C19.6431 55.4232 18.9012 55.1159 18.3543 54.5689C17.8073 54.0219 17.5 53.28 17.5 52.5065L17.4971 42.2077H15.9512C14.0406 42.2077 12.2082 41.4487 10.8571 40.0977C9.50608 38.7466 8.74707 36.9142 8.74707 35.0036C8.74707 33.0929 9.50608 31.2605 10.8571 29.9095C12.2082 28.5584 14.0406 27.7994 15.9512 27.7994H17.5V17.5007C17.5 16.7271 17.8073 15.9852 18.3543 15.4383C18.9012 14.8913 19.6431 14.584 20.4167 14.584H30.7125V13.0382C30.7125 11.1275 31.4715 9.29508 32.8225 7.94404C34.1736 6.59299 36.006 5.83398 37.9167 5.83398Z" fill="#C4FF00"/>
</svg>
