<svg width="70" height="70" viewBox="0 0 70 70" fill="none" xmlns="http://www.w3.org/2000/svg">
<path d="M64.9716 28.2352C63.558 21.5838 59.8091 15.5299 54.4142 11.1891C48.8972 6.77484 42.0411 4.37151 34.9755 4.375C26.6466 4.375 18.8673 7.58379 13.0513 13.4107C7.43081 19.049 4.35054 26.4934 4.37515 34.367C4.37534 40.1397 6.07007 45.7853 9.24917 50.6037L9.8439 51.4309L6.56265 65.625L22.258 61.7203C22.258 61.7203 22.5724 61.8256 22.8048 61.9145C23.0373 62.0033 25.0374 62.7703 27.1593 63.3637C28.923 63.8559 32.5925 64.5941 35.4677 64.5941C43.623 64.5941 51.2382 61.4359 56.9093 55.6992C62.5298 50.0076 65.6251 42.4402 65.6251 34.3834C65.6256 32.3166 65.4065 30.2557 64.9716 28.2352Z" fill="#C4FF00"/>
</svg>
